<?xml version="1.0" encoding="UTF-8" standalone="no"?>
<!DOCTYPE svg PUBLIC "-//W3C//DTD SVG 1.1//EN"
 "http://www.w3.org/Graphics/SVG/1.1/DTD/svg11.dtd">
<!-- Generated by graphviz version 14.1.1 (20251213.1925)
 -->
<!-- Title: InheritanceTree Pages: 1 -->
<svg width="475pt" height="1005pt"
 viewBox="0.00 0.00 475.00 1005.00" xmlns="http://www.w3.org/2000/svg" xmlns:xlink="http://www.w3.org/1999/xlink">
<g id="graph0" class="graph" transform="scale(1 1) rotate(0) translate(4 1000.5)">
<title>InheritanceTree</title>
<polygon fill="white" stroke="none" points="-4,4 -4,-1000.5 471,-1000.5 471,4 -4,4"/>
<text xml:space="preserve" text-anchor="middle" x="233.5" y="-7.2" font-family="Times New Roman,serif" font-size="14.00">simple_encoding &#45; Inheritance Hierarchy</text>
<!-- SIMPLE_CHARACTER_PROPERTIES -->
<g id="node1" class="node">
<title>SIMPLE_CHARACTER_PROPERTIES</title>
<path fill="none" stroke="black" d="M226.75,-60.5C226.75,-60.5 12,-60.5 12,-60.5 6,-60.5 0,-54.5 0,-48.5 0,-48.5 0,-36.5 0,-36.5 0,-30.5 6,-24.5 12,-24.5 12,-24.5 226.75,-24.5 226.75,-24.5 232.75,-24.5 238.75,-30.5 238.75,-36.5 238.75,-36.5 238.75,-48.5 238.75,-48.5 238.75,-54.5 232.75,-60.5 226.75,-60.5"/>
<text xml:space="preserve" text-anchor="middle" x="119.38" y="-37.45" font-family="Times New Roman,serif" font-size="14.00">SIMPLE_CHARACTER_PROPERTIES</text>
</g>
<!-- SIMPLE_CODEC -->
<g id="node2" class="node">
<title>SIMPLE_CODEC</title>
<path fill="none" stroke="black" d="M453.5,-204.5C453.5,-204.5 360.25,-204.5 360.25,-204.5 354.25,-204.5 348.25,-198.5 348.25,-192.5 348.25,-192.5 348.25,-180.5 348.25,-180.5 348.25,-174.5 354.25,-168.5 360.25,-168.5 360.25,-168.5 453.5,-168.5 453.5,-168.5 459.5,-168.5 465.5,-174.5 465.5,-180.5 465.5,-180.5 465.5,-192.5 465.5,-192.5 465.5,-198.5 459.5,-204.5 453.5,-204.5"/>
<text xml:space="preserve" text-anchor="middle" x="406.88" y="-181.45" font-family="Times New Roman,serif" font-size="14.00">SIMPLE_CODEC</text>
</g>
<!-- SIMPLE_CODEC_REGISTRY -->
<g id="node3" class="node">
<title>SIMPLE_CODEC_REGISTRY</title>
<path fill="none" stroke="black" d="M202,-348.5C202,-348.5 36.75,-348.5 36.75,-348.5 30.75,-348.5 24.75,-342.5 24.75,-336.5 24.75,-336.5 24.75,-324.5 24.75,-324.5 24.75,-318.5 30.75,-312.5 36.75,-312.5 36.75,-312.5 202,-312.5 202,-312.5 208,-312.5 214,-318.5 214,-324.5 214,-324.5 214,-336.5 214,-336.5 214,-342.5 208,-348.5 202,-348.5"/>
<text xml:space="preserve" text-anchor="middle" x="119.38" y="-325.45" font-family="Times New Roman,serif" font-size="14.00">SIMPLE_CODEC_REGISTRY</text>
</g>
<!-- SIMPLE_ENCODING -->
<g id="node4" class="node">
<title>SIMPLE_ENCODING</title>
<path fill="none" stroke="black" d="M178.38,-420.5C178.38,-420.5 60.38,-420.5 60.38,-420.5 54.38,-420.5 48.38,-414.5 48.38,-408.5 48.38,-408.5 48.38,-396.5 48.38,-396.5 48.38,-390.5 54.38,-384.5 60.38,-384.5 60.38,-384.5 178.38,-384.5 178.38,-384.5 184.38,-384.5 190.38,-390.5 190.38,-396.5 190.38,-396.5 190.38,-408.5 190.38,-408.5 190.38,-414.5 184.38,-420.5 178.38,-420.5"/>
<text xml:space="preserve" text-anchor="middle" x="119.38" y="-397.45" font-family="Times New Roman,serif" font-size="14.00">SIMPLE_ENCODING</text>
</g>
<!-- SIMPLE_ENCODING_DETECTOR -->
<g id="node5" class="node">
<title>SIMPLE_ENCODING_DETECTOR</title>
<path fill="none" stroke="black" d="M217,-492.5C217,-492.5 21.75,-492.5 21.75,-492.5 15.75,-492.5 9.75,-486.5 9.75,-480.5 9.75,-480.5 9.75,-468.5 9.75,-468.5 9.75,-462.5 15.75,-456.5 21.75,-456.5 21.75,-456.5 217,-456.5 217,-456.5 223,-456.5 229,-462.5 229,-468.5 229,-468.5 229,-480.5 229,-480.5 229,-486.5 223,-492.5 217,-492.5"/>
<text xml:space="preserve" text-anchor="middle" x="119.38" y="-469.45" font-family="Times New Roman,serif" font-size="14.00">SIMPLE_ENCODING_DETECTOR</text>
</g>
<!-- SIMPLE_ISO_8859_15_CODEC -->
<g id="node6" class="node">
<title>SIMPLE_ISO_8859_15_CODEC</title>
<path fill="none" stroke="black" d="M207.25,-276.5C207.25,-276.5 31.5,-276.5 31.5,-276.5 25.5,-276.5 19.5,-270.5 19.5,-264.5 19.5,-264.5 19.5,-252.5 19.5,-252.5 19.5,-246.5 25.5,-240.5 31.5,-240.5 31.5,-240.5 207.25,-240.5 207.25,-240.5 213.25,-240.5 219.25,-246.5 219.25,-252.5 219.25,-252.5 219.25,-264.5 219.25,-264.5 219.25,-270.5 213.25,-276.5 207.25,-276.5"/>
<text xml:space="preserve" text-anchor="middle" x="119.38" y="-253.45" font-family="Times New Roman,serif" font-size="14.00">SIMPLE_ISO_8859_15_CODEC</text>
</g>
<!-- SIMPLE_ISO_8859_15_CODEC&#45;&gt;SIMPLE_CODEC -->
<g id="edge1" class="edge">
<title>SIMPLE_ISO_8859_15_CODEC&#45;&gt;SIMPLE_CODEC</title>
<path fill="none" stroke="black" d="M219.56,-258.5C312.32,-258.5 436,-258.5 436,-258.5 436,-258.5 436,-216.18 436,-216.18"/>
<polygon fill="none" stroke="black" points="439.5,-216.18 436,-206.18 432.5,-216.18 439.5,-216.18"/>
</g>
<!-- SIMPLE_ISO_8859_1_CODEC -->
<g id="node7" class="node">
<title>SIMPLE_ISO_8859_1_CODEC</title>
<path fill="none" stroke="black" d="M203.88,-204.5C203.88,-204.5 34.88,-204.5 34.88,-204.5 28.88,-204.5 22.88,-198.5 22.88,-192.5 22.88,-192.5 22.88,-180.5 22.88,-180.5 22.88,-174.5 28.88,-168.5 34.88,-168.5 34.88,-168.5 203.88,-168.5 203.88,-168.5 209.88,-168.5 215.88,-174.5 215.88,-180.5 215.88,-180.5 215.88,-192.5 215.88,-192.5 215.88,-198.5 209.88,-204.5 203.88,-204.5"/>
<text xml:space="preserve" text-anchor="middle" x="119.38" y="-181.45" font-family="Times New Roman,serif" font-size="14.00">SIMPLE_ISO_8859_1_CODEC</text>
</g>
<!-- SIMPLE_ISO_8859_1_CODEC&#45;&gt;SIMPLE_CODEC -->
<g id="edge2" class="edge">
<title>SIMPLE_ISO_8859_1_CODEC&#45;&gt;SIMPLE_CODEC</title>
<path fill="none" stroke="black" d="M216.31,-192.5C216.31,-192.5 336.54,-192.5 336.54,-192.5"/>
<polygon fill="none" stroke="black" points="336.54,-196 346.54,-192.5 336.54,-189 336.54,-196"/>
</g>
<!-- SIMPLE_WINDOWS_1252_CODEC -->
<g id="node8" class="node">
<title>SIMPLE_WINDOWS_1252_CODEC</title>
<path fill="none" stroke="black" d="M220.38,-132.5C220.38,-132.5 18.38,-132.5 18.38,-132.5 12.38,-132.5 6.38,-126.5 6.38,-120.5 6.38,-120.5 6.38,-108.5 6.38,-108.5 6.38,-102.5 12.38,-96.5 18.38,-96.5 18.38,-96.5 220.38,-96.5 220.38,-96.5 226.38,-96.5 232.38,-102.5 232.38,-108.5 232.38,-108.5 232.38,-120.5 232.38,-120.5 232.38,-126.5 226.38,-132.5 220.38,-132.5"/>
<text xml:space="preserve" text-anchor="middle" x="119.38" y="-109.45" font-family="Times New Roman,serif" font-size="14.00">SIMPLE_WINDOWS_1252_CODEC</text>
</g>
<!-- SIMPLE_WINDOWS_1252_CODEC&#45;&gt;SIMPLE_CODEC -->
<g id="edge3" class="edge">
<title>SIMPLE_WINDOWS_1252_CODEC&#45;&gt;SIMPLE_CODEC</title>
<path fill="none" stroke="black" d="M224,-132.88C224,-152.41 224,-180.5 224,-180.5 224,-180.5 336.24,-180.5 336.24,-180.5"/>
<polygon fill="none" stroke="black" points="336.24,-184 346.24,-180.5 336.24,-177 336.24,-184"/>
</g>
<!-- ADVERSARIAL_TESTS -->
<g id="node9" class="node">
<title>ADVERSARIAL_TESTS</title>
<path fill="none" stroke="black" d="M186.25,-924.5C186.25,-924.5 52.5,-924.5 52.5,-924.5 46.5,-924.5 40.5,-918.5 40.5,-912.5 40.5,-912.5 40.5,-900.5 40.5,-900.5 40.5,-894.5 46.5,-888.5 52.5,-888.5 52.5,-888.5 186.25,-888.5 186.25,-888.5 192.25,-888.5 198.25,-894.5 198.25,-900.5 198.25,-900.5 198.25,-912.5 198.25,-912.5 198.25,-918.5 192.25,-924.5 186.25,-924.5"/>
<text xml:space="preserve" text-anchor="middle" x="119.38" y="-901.45" font-family="Times New Roman,serif" font-size="14.00">ADVERSARIAL_TESTS</text>
</g>
<!-- TEST_SET_BASE -->
<g id="node10" class="node">
<title>TEST_SET_BASE</title>
<path fill="none" stroke="black" d="M455,-744.5C455,-744.5 358.75,-744.5 358.75,-744.5 352.75,-744.5 346.75,-738.5 346.75,-732.5 346.75,-732.5 346.75,-720.5 346.75,-720.5 346.75,-714.5 352.75,-708.5 358.75,-708.5 358.75,-708.5 455,-708.5 455,-708.5 461,-708.5 467,-714.5 467,-720.5 467,-720.5 467,-732.5 467,-732.5 467,-738.5 461,-744.5 455,-744.5"/>
<text xml:space="preserve" text-anchor="middle" x="406.88" y="-721.45" font-family="Times New Roman,serif" font-size="14.00">TEST_SET_BASE</text>
</g>
<!-- ADVERSARIAL_TESTS&#45;&gt;TEST_SET_BASE -->
<g id="edge4" class="edge">
<title>ADVERSARIAL_TESTS&#45;&gt;TEST_SET_BASE</title>
<path fill="none" stroke="black" d="M193,-888.07C193,-844.22 193,-737.3 193,-737.3 193,-737.3 334.93,-737.3 334.93,-737.3"/>
<polygon fill="none" stroke="black" points="334.93,-740.8 344.93,-737.3 334.93,-733.8 334.93,-740.8"/>
</g>
<!-- BUG_HUNT_TESTS -->
<g id="node11" class="node">
<title>BUG_HUNT_TESTS</title>
<path fill="none" stroke="black" d="M175,-852.5C175,-852.5 63.75,-852.5 63.75,-852.5 57.75,-852.5 51.75,-846.5 51.75,-840.5 51.75,-840.5 51.75,-828.5 51.75,-828.5 51.75,-822.5 57.75,-816.5 63.75,-816.5 63.75,-816.5 175,-816.5 175,-816.5 181,-816.5 187,-822.5 187,-828.5 187,-828.5 187,-840.5 187,-840.5 187,-846.5 181,-852.5 175,-852.5"/>
<text xml:space="preserve" text-anchor="middle" x="119.38" y="-829.45" font-family="Times New Roman,serif" font-size="14.00">BUG_HUNT_TESTS</text>
</g>
<!-- BUG_HUNT_TESTS&#45;&gt;TEST_SET_BASE -->
<g id="edge5" class="edge">
<title>BUG_HUNT_TESTS&#45;&gt;TEST_SET_BASE</title>
<path fill="none" stroke="black" d="M182,-816.31C182,-786.4 182,-730.1 182,-730.1 182,-730.1 334.8,-730.1 334.8,-730.1"/>
<polygon fill="none" stroke="black" points="334.8,-733.6 344.8,-730.1 334.8,-726.6 334.8,-733.6"/>
</g>
<!-- CODEC_TESTS -->
<g id="node12" class="node">
<title>CODEC_TESTS</title>
<path fill="none" stroke="black" d="M161.5,-780.5C161.5,-780.5 77.25,-780.5 77.25,-780.5 71.25,-780.5 65.25,-774.5 65.25,-768.5 65.25,-768.5 65.25,-756.5 65.25,-756.5 65.25,-750.5 71.25,-744.5 77.25,-744.5 77.25,-744.5 161.5,-744.5 161.5,-744.5 167.5,-744.5 173.5,-750.5 173.5,-756.5 173.5,-756.5 173.5,-768.5 173.5,-768.5 173.5,-774.5 167.5,-780.5 161.5,-780.5"/>
<text xml:space="preserve" text-anchor="middle" x="119.38" y="-757.45" font-family="Times New Roman,serif" font-size="14.00">CODEC_TESTS</text>
</g>
<!-- CODEC_TESTS&#45;&gt;TEST_SET_BASE -->
<g id="edge6" class="edge">
<title>CODEC_TESTS&#45;&gt;TEST_SET_BASE</title>
<path fill="none" stroke="black" d="M119,-744.09C119,-733.75 119,-722.9 119,-722.9 119,-722.9 335.01,-722.9 335.01,-722.9"/>
<polygon fill="none" stroke="black" points="335.01,-726.4 345.01,-722.9 335.01,-719.4 335.01,-726.4"/>
</g>
<!-- ENCODING_TESTS -->
<g id="node13" class="node">
<title>ENCODING_TESTS</title>
<path fill="none" stroke="black" d="M173.88,-708.5C173.88,-708.5 64.88,-708.5 64.88,-708.5 58.88,-708.5 52.88,-702.5 52.88,-696.5 52.88,-696.5 52.88,-684.5 52.88,-684.5 52.88,-678.5 58.88,-672.5 64.88,-672.5 64.88,-672.5 173.88,-672.5 173.88,-672.5 179.88,-672.5 185.88,-678.5 185.88,-684.5 185.88,-684.5 185.88,-696.5 185.88,-696.5 185.88,-702.5 179.88,-708.5 173.88,-708.5"/>
<text xml:space="preserve" text-anchor="middle" x="119.38" y="-685.45" font-family="Times New Roman,serif" font-size="14.00">ENCODING_TESTS</text>
</g>
<!-- ENCODING_TESTS&#45;&gt;TEST_SET_BASE -->
<g id="edge7" class="edge">
<title>ENCODING_TESTS&#45;&gt;TEST_SET_BASE</title>
<path fill="none" stroke="black" d="M178,-708.81C178,-712.72 178,-715.7 178,-715.7 178,-715.7 334.93,-715.7 334.93,-715.7"/>
<polygon fill="none" stroke="black" points="334.93,-719.2 344.93,-715.7 334.93,-712.2 334.93,-719.2"/>
</g>
<!-- STRESS_TESTS -->
<g id="node14" class="node">
<title>STRESS_TESTS</title>
<path fill="none" stroke="black" d="M162.62,-636.5C162.62,-636.5 76.12,-636.5 76.12,-636.5 70.12,-636.5 64.12,-630.5 64.12,-624.5 64.12,-624.5 64.12,-612.5 64.12,-612.5 64.12,-606.5 70.12,-600.5 76.12,-600.5 76.12,-600.5 162.62,-600.5 162.62,-600.5 168.62,-600.5 174.62,-606.5 174.62,-612.5 174.62,-612.5 174.62,-624.5 174.62,-624.5 174.62,-630.5 168.62,-636.5 162.62,-636.5"/>
<text xml:space="preserve" text-anchor="middle" x="119.38" y="-613.45" font-family="Times New Roman,serif" font-size="14.00">STRESS_TESTS</text>
</g>
<!-- STRESS_TESTS&#45;&gt;TEST_SET_BASE -->
<g id="edge8" class="edge">
<title>STRESS_TESTS&#45;&gt;TEST_SET_BASE</title>
<path fill="none" stroke="black" d="M174.86,-618.5C250.85,-618.5 378,-618.5 378,-618.5 378,-618.5 378,-696.67 378,-696.67"/>
<polygon fill="none" stroke="black" points="374.5,-696.67 378,-706.67 381.5,-696.67 374.5,-696.67"/>
</g>
<!-- TEST_APP -->
<g id="node15" class="node">
<title>TEST_APP</title>
<path fill="none" stroke="black" d="M147.25,-996.5C147.25,-996.5 91.5,-996.5 91.5,-996.5 85.5,-996.5 79.5,-990.5 79.5,-984.5 79.5,-984.5 79.5,-972.5 79.5,-972.5 79.5,-966.5 85.5,-960.5 91.5,-960.5 91.5,-960.5 147.25,-960.5 147.25,-960.5 153.25,-960.5 159.25,-966.5 159.25,-972.5 159.25,-972.5 159.25,-984.5 159.25,-984.5 159.25,-990.5 153.25,-996.5 147.25,-996.5"/>
<text xml:space="preserve" text-anchor="middle" x="119.38" y="-973.45" font-family="Times New Roman,serif" font-size="14.00">TEST_APP</text>
</g>
<!-- UTILITY_TESTS -->
<g id="node16" class="node">
<title>UTILITY_TESTS</title>
<path fill="none" stroke="black" d="M165.25,-564.5C165.25,-564.5 73.5,-564.5 73.5,-564.5 67.5,-564.5 61.5,-558.5 61.5,-552.5 61.5,-552.5 61.5,-540.5 61.5,-540.5 61.5,-534.5 67.5,-528.5 73.5,-528.5 73.5,-528.5 165.25,-528.5 165.25,-528.5 171.25,-528.5 177.25,-534.5 177.25,-540.5 177.25,-540.5 177.25,-552.5 177.25,-552.5 177.25,-558.5 171.25,-564.5 165.25,-564.5"/>
<text xml:space="preserve" text-anchor="middle" x="119.38" y="-541.45" font-family="Times New Roman,serif" font-size="14.00">UTILITY_TESTS</text>
</g>
<!-- UTILITY_TESTS&#45;&gt;TEST_SET_BASE -->
<g id="edge9" class="edge">
<title>UTILITY_TESTS&#45;&gt;TEST_SET_BASE</title>
<path fill="none" stroke="black" d="M177.58,-546.5C261.63,-546.5 407,-546.5 407,-546.5 407,-546.5 407,-696.74 407,-696.74"/>
<polygon fill="none" stroke="black" points="403.5,-696.74 407,-706.74 410.5,-696.74 403.5,-696.74"/>
</g>
</g>
</svg>
