<?xml version="1.0" encoding="UTF-8" standalone="no"?>
<!DOCTYPE svg PUBLIC "-//W3C//DTD SVG 1.1//EN"
 "http://www.w3.org/Graphics/SVG/1.1/DTD/svg11.dtd">
<!-- Generated by graphviz version 14.1.1 (20251213.1925)
 -->
<!-- Title: Dependencies Pages: 1 -->
<svg width="357pt" height="285pt"
 viewBox="0.00 0.00 357.00 285.00" xmlns="http://www.w3.org/2000/svg" xmlns:xlink="http://www.w3.org/1999/xlink">
<g id="graph0" class="graph" transform="scale(1 1) rotate(0) translate(4 280.5)">
<title>Dependencies</title>
<polygon fill="white" stroke="none" points="-4,4 -4,-280.5 352.5,-280.5 352.5,4 -4,4"/>
<text xml:space="preserve" text-anchor="middle" x="174.25" y="-7.2" font-family="Times New Roman,serif" font-size="14.00">simple_encoding &#45; Dependencies</text>
<!-- simple_encoding -->
<g id="node1" class="node">
<title>simple_encoding</title>
<polygon fill="lightblue" stroke="black" points="109,-168.5 0,-168.5 0,-132.5 109,-132.5 109,-168.5"/>
<text xml:space="preserve" text-anchor="middle" x="54.5" y="-145.45" font-family="Times New Roman,serif" font-size="14.00">simple_encoding</text>
</g>
<!-- simple_mml -->
<g id="node2" class="node">
<title>simple_mml</title>
<polygon fill="lightblue" stroke="black" points="343.62,-276.5 257.88,-276.5 257.88,-240.5 343.62,-240.5 343.62,-276.5"/>
<text xml:space="preserve" text-anchor="middle" x="300.75" y="-253.45" font-family="Times New Roman,serif" font-size="14.00">simple_mml</text>
</g>
<!-- simple_encoding&#45;&gt;simple_mml -->
<g id="edge1" class="edge">
<title>simple_encoding&#45;&gt;simple_mml</title>
<path fill="none" stroke="black" stroke-dasharray="5,2" d="M54.5,-168.82C54.5,-199.63 54.5,-258.5 54.5,-258.5 54.5,-258.5 246.06,-258.5 246.06,-258.5"/>
<polygon fill="black" stroke="black" points="246.06,-262 256.06,-258.5 246.06,-255 246.06,-262"/>
</g>
<!-- simple_testing -->
<g id="node3" class="node">
<title>simple_testing</title>
<polygon fill="lightblue" stroke="black" points="348.5,-204.5 253,-204.5 253,-168.5 348.5,-168.5 348.5,-204.5"/>
<text xml:space="preserve" text-anchor="middle" x="300.75" y="-181.45" font-family="Times New Roman,serif" font-size="14.00">simple_testing</text>
</g>
<!-- simple_encoding&#45;&gt;simple_testing -->
<g id="edge2" class="edge">
<title>simple_encoding&#45;&gt;simple_testing</title>
<path fill="none" stroke="black" stroke-dasharray="5,2" d="M109.41,-156.5C171.34,-156.5 263.5,-156.5 263.5,-156.5 263.5,-156.5 263.5,-157.65 263.5,-157.65"/>
<polygon fill="black" stroke="black" points="260,-156.5 263.5,-166.5 267,-156.5 260,-156.5"/>
</g>
<!-- base -->
<g id="node4" class="node">
<title>base</title>
<polygon fill="lightgray" stroke="black" points="327.75,-132.5 273.75,-132.5 273.75,-96.5 327.75,-96.5 327.75,-132.5"/>
<text xml:space="preserve" text-anchor="middle" x="300.75" y="-109.45" font-family="Times New Roman,serif" font-size="14.00">base</text>
</g>
<!-- simple_encoding&#45;&gt;base -->
<g id="edge3" class="edge">
<title>simple_encoding&#45;&gt;base</title>
<path fill="none" stroke="black" stroke-dasharray="5,2" d="M109.4,-144.5C181.9,-144.5 300.5,-144.5 300.5,-144.5 300.5,-144.5 300.5,-143.35 300.5,-143.35"/>
<polygon fill="black" stroke="black" points="304,-144.5 300.5,-134.5 297,-144.5 304,-144.5"/>
</g>
<!-- testing -->
<g id="node5" class="node">
<title>testing</title>
<polygon fill="lightgray" stroke="black" points="327.75,-60.5 273.75,-60.5 273.75,-24.5 327.75,-24.5 327.75,-60.5"/>
<text xml:space="preserve" text-anchor="middle" x="300.75" y="-37.45" font-family="Times New Roman,serif" font-size="14.00">testing</text>
</g>
<!-- simple_encoding&#45;&gt;testing -->
<g id="edge4" class="edge">
<title>simple_encoding&#45;&gt;testing</title>
<path fill="none" stroke="black" stroke-dasharray="5,2" d="M54.5,-132.18C54.5,-101.37 54.5,-42.5 54.5,-42.5 54.5,-42.5 261.94,-42.5 261.94,-42.5"/>
<polygon fill="black" stroke="black" points="261.94,-46 271.94,-42.5 261.94,-39 261.94,-46"/>
</g>
</g>
</svg>
